<?xml version="1.0" encoding="UTF-8"?>
<svg version="1.1" xmlns="http://www.w3.org/2000/svg" width="432" height="578">
<path d="M0 0 C43.23 0 86.46 0 131 0 C131 1.98 131 3.96 131 6 C129.74445313 6.03738281 128.48890625 6.07476562 127.1953125 6.11328125 C110.7515138 6.17152354 110.7515138 6.17152354 97 14 C93.4472854 19.17197908 91.8785136 23.62005137 91.86692142 29.84486771 C91.86055986 31.31331426 91.86055986 31.31331426 91.85406977 32.8114264 C91.8544559 33.88454253 91.85484203 34.95765866 91.85523987 36.06329346 C91.85171302 37.20542289 91.84818618 38.34755233 91.84455246 39.52429175 C91.83571492 42.69557122 91.83130476 45.86682186 91.82870948 49.03811145 C91.82481307 52.45912711 91.81517488 55.8801269 91.80615234 59.3011322 C91.79120899 65.23401821 91.77966534 71.16690296 91.77020454 77.09980011 C91.75630797 85.70392229 91.73511319 94.30801529 91.71177601 102.9121165 C91.67383767 116.90608504 91.63888917 130.90005894 91.60717773 144.89404297 C91.604327 146.15072275 91.604327 146.15072275 91.60141867 147.43279001 C91.57467535 159.28124368 91.5507808 171.1297014 91.52803367 182.97816333 C91.52643637 183.80988603 91.52483906 184.64160874 91.52319336 185.49853516 C91.52080316 186.74458392 91.52080316 186.74458392 91.51836468 188.01580539 C91.49147132 201.93330179 91.45701353 215.85076768 91.41653961 229.76823115 C91.39192998 238.33329796 91.37351175 246.89833213 91.363384 255.46342853 C91.35591632 261.35566691 91.34127733 267.24786147 91.32131977 273.14007065 C91.31007855 276.52530112 91.30288761 279.91040195 91.30232811 283.29566002 C91.29855481 295.94061191 91.13686945 308.51671609 90.11778259 321.12591553 C90.04204752 322.07174633 89.96631244 323.01757714 89.88828236 323.99206948 C88.08326477 343.85655425 82.164926 360.82640488 69 376 C68.11054688 377.20462891 68.11054688 377.20462891 67.203125 378.43359375 C53.10835561 394.85250065 28.82404791 402.23703797 8.0390625 404.765625 C-1.59908129 405.47956158 -11.34467212 405.14784365 -21 405 C-21 403.02 -21 401.04 -21 399 C-19.92363281 398.97421875 -18.84726562 398.9484375 -17.73828125 398.921875 C-2.77645666 398.40737407 11.84184649 395.75446971 22.6875 384.5 C35.51996008 368.5502206 38.15466981 348.70064421 38.14044189 328.89230347 C38.14341302 327.59098295 38.14638414 326.28966244 38.1494453 324.94890797 C38.15746377 321.35705193 38.15930196 317.76521593 38.16004276 314.173352 C38.16190218 310.29194405 38.16945358 306.41054629 38.17617798 302.52914429 C38.18972169 294.05427232 38.19577886 285.57940512 38.20018864 277.10452414 C38.20295586 271.81128051 38.2071939 266.51803869 38.21169281 261.2247963 C38.22387667 246.56231488 38.23418008 231.89983492 38.2375679 217.23734856 C38.23778747 216.3002252 38.23800703 215.36310184 38.23823325 214.39758081 C38.23845153 213.45826847 38.23866981 212.51895612 38.2388947 211.55117977 C38.23933816 209.64788937 38.23978473 207.74459898 38.24023438 205.84130859 C38.24056652 204.42517388 38.24056652 204.42517388 38.24090537 202.98043038 C38.2448575 187.6665084 38.2623281 172.35263388 38.2855939 157.03873025 C38.30930064 141.307507 38.32176932 125.57630759 38.32293582 109.84506619 C38.32385257 101.01579328 38.32960563 92.18658235 38.34775543 83.35732651 C38.36314674 75.84382729 38.36828234 68.33040924 38.36001733 60.81689726 C38.35610837 56.98410199 38.35705258 53.15147026 38.37107468 49.31869507 C38.38613725 45.16358807 38.37795518 41.00885026 38.36749268 36.85372925 C38.37554908 35.64293666 38.38360548 34.43214407 38.39190602 33.18466079 C38.33682258 23.85530341 36.82766085 17.82766085 30 11 C22.99381285 7.37179594 16.41271913 6.80943241 8.6875 6.4375 C7.85154297 6.39431641 7.01558594 6.35113281 6.15429688 6.30664062 C4.10303065 6.20114693 2.0515352 6.10012685 0 6 C0 4.02 0 2.04 0 0 Z " fill="#0C384E" transform="translate(282,167)"/>
<path d="M0 0 C72.6 0 145.2 0 220 0 C221.125 15.75 221.125 15.75 221.29711914 21.37255859 C221.33708511 22.63280853 221.37705109 23.89305847 221.41822815 25.1914978 C221.45681442 26.4972879 221.4954007 27.803078 221.53515625 29.1484375 C221.57832185 30.54091136 221.62173809 31.93337748 221.66539001 33.32583618 C221.77800375 36.93905485 221.88728065 40.55236647 221.99578857 44.16571045 C222.10775028 47.87355847 222.22297012 51.58130521 222.33789062 55.2890625 C222.56172713 62.52594802 222.7820277 69.76293522 223 77 C221.02 77 219.04 77 217 77 C216.90295776 75.80793945 216.90295776 75.80793945 216.80395508 74.59179688 C214.39255519 45.14265951 214.39255519 45.14265951 200.875 19.25 C188.44069174 9.51880223 172.70874719 6.97938567 157.29882812 6.79467773 C156.1971291 6.77962865 156.1971291 6.77962865 155.07317352 6.76427555 C152.72589638 6.73321447 150.37860214 6.70825504 148.03125 6.68359375 C146.5699818 6.66516032 145.10871865 6.64632211 143.64746094 6.6270752 C138.26503362 6.55899138 132.88250992 6.49870649 127.5 6.4375 C115.455 6.293125 103.41 6.14875 91 6 C91 50.88 91 95.76 91 142 C125.65 142 160.3 142 196 142 C196 143.98 196 145.96 196 148 C161.35 148 126.7 148 91 148 C91 197.83 91 247.66 91 299 C103.271875 298.87625 115.54375 298.7525 128.1875 298.625 C132.01625732 298.59100098 135.84501465 298.55700195 139.78979492 298.52197266 C180.69638525 299.96880038 180.69638525 299.96880038 216.4765625 283.71484375 C226.86253798 272.02396366 229.07416656 254.86450286 230.125 239.9375 C230.25455078 238.20983398 230.25455078 238.20983398 230.38671875 236.44726562 C230.59699593 233.63188777 230.80128364 230.81621341 231 228 C232.98 228 234.96 228 237 228 C237.20173536 240.73323702 236.66916647 253.44793239 236.20043945 266.17016602 C236.06195127 269.95248667 235.93018959 273.73500402 235.79882812 277.51757812 C235.71134318 279.9375147 235.62346646 282.35743715 235.53515625 284.77734375 C235.49656998 285.90035385 235.4579837 287.02336395 235.41822815 288.18040466 C235.37826218 289.23582962 235.3382962 290.29125458 235.29711914 291.37866211 C235.26380997 292.29796005 235.23050079 293.217258 235.19618225 294.16441345 C234.96822828 297.4592233 234.46707034 300.73050764 234 304 C156.45 304 78.9 304 -1 304 C-0.67 302.35 -0.34 300.7 0 299 C1.24394531 298.90203125 2.48789063 298.8040625 3.76953125 298.703125 C19.95130991 297.78300506 19.95130991 297.78300506 33.5 289.875 C38.70133996 282.56600296 39.44376879 274.17007452 39.38095093 265.44970703 C39.3856309 264.43549746 39.39031087 263.42128788 39.39513266 262.37634468 C39.40702689 259.00336461 39.39764712 255.63079504 39.38818359 252.2578125 C39.39225176 249.82924158 39.39759501 247.40067251 39.40411377 244.97210693 C39.41634835 239.07587306 39.41459202 233.17974443 39.40587585 227.28351355 C39.39908325 222.48882452 39.39818937 217.69416757 39.4014473 212.8994751 C39.401907 212.21542764 39.40236669 211.53138018 39.40284032 210.82660401 C39.40379956 209.43670065 39.4047722 208.04679731 39.4057581 206.65689397 C39.41429981 193.64306583 39.40449705 180.62930124 39.388357 167.61548352 C39.37495491 156.46432701 39.37728335 145.3132642 39.39111328 134.16210938 C39.40719069 121.19284207 39.41347595 108.22363036 39.40427649 95.25435448 C39.40332091 93.86974463 39.40237779 92.48513477 39.4014473 91.1005249 C39.40098447 90.41938255 39.40052164 89.73824021 39.40004479 89.03645718 C39.39746138 84.25103674 39.40181186 79.46565176 39.40888596 74.68023682 C39.41820917 68.23200801 39.41151148 61.78391416 39.39420319 55.33570099 C39.39024479 52.97266177 39.39136126 50.60960763 39.39799118 48.2465744 C39.40622216 45.01428167 39.39586587 41.78255021 39.38095093 38.55029297 C39.38764309 37.6212874 39.39433526 36.69228184 39.40123022 35.73512459 C39.33561386 28.37416135 38.07379719 21.53313595 34.3125 15.125 C25.05657278 6.61955337 11.8943179 6.71857564 0 6 C0 4.02 0 2.04 0 0 Z " fill="#043148" transform="translate(66,35)"/>
<path d="M0 0 C72.6 0 145.2 0 220 0 C221.125 15.75 221.125 15.75 221.29711914 21.37255859 C221.33708511 22.63280853 221.37705109 23.89305847 221.41822815 25.1914978 C221.45681442 26.4972879 221.4954007 27.803078 221.53515625 29.1484375 C221.57832185 30.54091136 221.62173809 31.93337748 221.66539001 33.32583618 C221.77800375 36.93905485 221.88728065 40.55236647 221.99578857 44.16571045 C222.10775028 47.87355847 222.22297012 51.58130521 222.33789062 55.2890625 C222.56172713 62.52594802 222.7820277 69.76293522 223 77 C221.02 77 219.04 77 217 77 C216.90295776 75.80793945 216.90295776 75.80793945 216.80395508 74.59179688 C214.39255519 45.14265951 214.39255519 45.14265951 200.875 19.25 C188.44069174 9.51880223 172.70874719 6.97938567 157.29882812 6.79467773 C156.1971291 6.77962865 156.1971291 6.77962865 155.07317352 6.76427555 C152.72589638 6.73321447 150.37860214 6.70825504 148.03125 6.68359375 C146.5699818 6.66516032 145.10871865 6.64632211 143.64746094 6.6270752 C138.26503362 6.55899138 132.88250992 6.49870649 127.5 6.4375 C115.455 6.293125 103.41 6.14875 91 6 C91 50.88 91 95.76 91 142 C125.65 142 160.3 142 196 142 C196 143.98 196 145.96 196 148 C161.35 148 126.7 148 91 148 C91 197.83 91 247.66 91 299 C103.271875 298.87625 115.54375 298.7525 128.1875 298.625 C132.01625732 298.59100098 135.84501465 298.55700195 139.78979492 298.52197266 C180.69638525 299.96880038 180.69638525 299.96880038 216.4765625 283.71484375 C226.86253798 272.02396366 229.07416656 254.86450286 230.125 239.9375 C230.25455078 238.20983398 230.25455078 238.20983398 230.38671875 236.44726562 C230.59699593 233.63188777 230.80128364 230.81621341 231 228 C232.98 228 234.96 228 237 228 C237.20173536 240.73323702 236.66916647 253.44793239 236.20043945 266.17016602 C236.06195127 269.95248667 235.93018959 273.73500402 235.79882812 277.51757812 C235.71134318 279.9375147 235.62346646 282.35743715 235.53515625 284.77734375 C235.49656998 285.90035385 235.4579837 287.02336395 235.41822815 288.18040466 C235.37826218 289.23582962 235.3382962 290.29125458 235.29711914 291.37866211 C235.26380997 292.29796005 235.23050079 293.217258 235.19618225 294.16441345 C234.96822828 297.4592233 234.46707034 300.73050764 234 304 C156.45 304 78.9 304 -1 304 C-0.67 302.35 -0.34 300.7 0 299 C6.37305598 298.25492456 12.58311325 297.89650183 19 298 C17 300 17 300 13.3046875 300.1953125 C11.82799892 300.182009 10.35137642 300.15814835 8.875 300.125 C8.12089844 300.11597656 7.36679688 300.10695313 6.58984375 300.09765625 C4.72642746 300.0740687 2.86317407 300.03819719 1 300 C1 300.99 1 301.98 1 303 C59.74 302.67 118.48 302.34 179 302 C179.33 301.01 179.66 300.02 180 299 C179.01 299.33 178.02 299.66 177 300 C174.2157629 300.09138969 171.45715502 300.12598085 168.6730957 300.11352539 C167.37901307 300.11370619 167.37901307 300.11370619 166.05878735 300.11389065 C163.26442581 300.11314389 160.47013086 300.10552638 157.67578125 300.09765625 C155.95129427 300.0961861 154.22680685 300.09516584 152.50231934 300.09460449 C146.10570609 300.08936009 139.70910239 300.07539891 133.3125 300.0625 C111.8728125 300.0315625 111.8728125 300.0315625 90 300 C90 249.51 90 199.02 90 147 C124.65 147 159.3 147 195 147 C195 145.68 195 144.36 195 143 C160.35 143 125.7 143 90 143 C90 97.46 90 51.92 90 5 C115.08 5 140.16 5 166 5 C166 4.34 166 3.68 166 3 C166.64923935 3.00222061 167.2984787 3.00444122 167.96739197 3.00672913 C174.69887748 3.02878002 181.43035281 3.04390577 188.16186523 3.05493164 C190.67716895 3.05997363 193.19246972 3.06680703 195.70776367 3.07543945 C199.31429775 3.08751094 202.92079323 3.09322949 206.52734375 3.09765625 C207.65961899 3.10281754 208.79189423 3.10797882 209.95848083 3.11329651 C210.99948441 3.11337204 212.04048798 3.11344757 213.11303711 3.11352539 C214.03459091 3.115746 214.95614471 3.11796661 215.90562439 3.12025452 C217.98808362 3.2337198 217.98808362 3.2337198 219 2 C147.06 2 75.12 2 1 2 C1 2.99 1 3.98 1 5 C2.50626953 4.96519531 2.50626953 4.96519531 4.04296875 4.9296875 C12.77687041 4.79023685 21.47286436 4.821142 30 7 C32 9 32 9 32 12 C31.3090625 11.70222656 30.618125 11.40445313 29.90625 11.09765625 C20.36380636 7.49358815 10.11743794 6.48738488 0 6 C0 4.02 0 2.04 0 0 Z " fill="#577585" transform="translate(66,35)"/>
<path d="M0 0 C1.98 0 3.96 0 6 0 C6.20173536 12.73323702 5.66916647 25.44793239 5.20043945 38.17016602 C5.06195127 41.95248667 4.93018959 45.73500402 4.79882812 49.51757812 C4.71134318 51.9375147 4.62346646 54.35743715 4.53515625 56.77734375 C4.49656998 57.90035385 4.4579837 59.02336395 4.41822815 60.18040466 C4.37826218 61.23582962 4.3382962 62.29125458 4.29711914 63.37866211 C4.26380997 64.29796005 4.23050079 65.217258 4.19618225 66.16441345 C3.96822828 69.4592233 3.46707034 72.73050764 3 76 C-74.55 76 -152.1 76 -232 76 C-231.67 74.35 -231.34 72.7 -231 71 C-224.62694402 70.25492456 -218.41688675 69.89650183 -212 70 C-214 72 -214 72 -217.6953125 72.1953125 C-219.17200108 72.182009 -220.64862358 72.15814835 -222.125 72.125 C-222.87910156 72.11597656 -223.63320312 72.10695313 -224.41015625 72.09765625 C-226.27357254 72.0740687 -228.13682593 72.03819719 -230 72 C-230 72.99 -230 73.98 -230 75 C-171.26 74.67 -112.52 74.34 -52 74 C-51.67 73.01 -51.34 72.02 -51 71 C-51.99 71.33 -52.98 71.66 -54 72 C-56.78420061 72.09138849 -59.5428772 72.12599455 -62.3269043 72.11352539 C-63.17590302 72.11367142 -64.02490173 72.11381744 -64.89962769 72.1139679 C-67.70785063 72.11327083 -70.51600738 72.10548806 -73.32421875 72.09765625 C-75.27049219 72.09579134 -77.21676609 72.09436778 -79.16304016 72.09336853 C-84.28733617 72.08954912 -89.41160386 72.07972373 -94.53588867 72.06866455 C-99.76415626 72.05843806 -104.99242842 72.05386825 -110.22070312 72.04882812 C-120.48048119 72.03810097 -130.74023824 72.02103143 -141 72 C-141 71.67 -141 71.34 -141 71 C-139.60416435 70.98786972 -139.60416435 70.98786972 -138.18013 70.97549438 C-129.31272745 70.89724274 -120.44546364 70.80932188 -111.57824421 70.71247292 C-107.02200028 70.66300522 -102.4657742 70.6166812 -97.90942383 70.578125 C-53.51028814 72.61840133 -53.51028814 72.61840133 -14.5234375 55.71484375 C-4.13746202 44.02396366 -1.92583344 26.86450286 -0.875 11.9375 C-0.74544922 10.20983398 -0.74544922 10.20983398 -0.61328125 8.44726562 C-0.40300407 5.63188777 -0.19871636 2.81621341 0 0 Z " fill="#36586B" transform="translate(297,263)"/>
<path d="M0 0 C0.77338431 0.00092179 1.54676863 0.00184359 2.34358883 0.00279331 C3.22844967 0.00141865 4.11331051 0.00004398 5.02498531 -0.00137234 C6.00321758 0.00222294 6.98144985 0.00581821 7.98932552 0.00952244 C9.01359646 0.00937641 10.03786739 0.00923038 11.09317684 0.00907993 C14.49665055 0.00977955 17.9000703 0.0175742 21.30353451 0.02539158 C23.65623094 0.02725559 26.00892776 0.02867957 28.36162472 0.0296793 C34.56769531 0.03350584 40.77374266 0.04333728 46.97980404 0.05438328 C53.30711204 0.06459448 59.63442378 0.06917629 65.96173763 0.0742197 C78.38687807 0.08495942 90.81200124 0.10203747 103.23712826 0.12304783 C103.23712826 1.44304783 103.23712826 2.76304783 103.23712826 4.12304783 C68.58712826 4.12304783 33.93712826 4.12304783 -1.76287174 4.12304783 C-1.76287174 53.62304783 -1.76287174 103.12304783 -1.76287174 154.12304783 C-2.09287174 154.12304783 -2.42287174 154.12304783 -2.76287174 154.12304783 C-2.78619918 134.1915984 -2.80385015 114.26015172 -2.81468391 94.32869148 C-2.8198472 85.07483623 -2.82689052 75.82098944 -2.8383112 66.56713963 C-2.84825703 58.50448585 -2.85472493 50.4418382 -2.85696024 42.37917846 C-2.85826752 38.10736262 -2.86135444 33.83556432 -2.8686018 29.56375408 C-2.87536044 25.54768827 -2.87748903 21.53164732 -2.87597942 17.51557636 C-2.87625582 16.03727998 -2.87826187 14.55898282 -2.88207722 13.08069134 C-2.88701195 11.07105826 -2.88526989 9.06141202 -2.88312626 7.05177402 C-2.88404805 5.92442121 -2.88496984 4.79706839 -2.88591957 3.63555336 C-2.71715971 0.18965679 -2.71715971 0.18965679 0 0 Z " fill="#133749" transform="translate(157.76287174224854,177.87695217132568)"/>
<path d="M0 0 C72.6 0 145.2 0 220 0 C220 2.64 220 5.28 220 8 C219.67 8 219.34 8 219 8 C219 6.02 219 4.04 219 2 C147.06 2 75.12 2 1 2 C1 2.99 1 3.98 1 5 C2.50626953 4.96519531 2.50626953 4.96519531 4.04296875 4.9296875 C12.77687041 4.79023685 21.47286436 4.821142 30 7 C32 9 32 9 32 12 C31.3090625 11.70222656 30.618125 11.40445313 29.90625 11.09765625 C20.36380636 7.49358815 10.11743794 6.48738488 0 6 C0 4.02 0 2.04 0 0 Z " fill="#8C9EAB" transform="translate(66,35)"/>
<path d="M0 0 C71.94 0 143.88 0 218 0 C218 1.98 218 3.96 218 6 C217.67 6 217.34 6 217 6 C217 4.35 217 2.7 217 1 C199.84 1 182.68 1 165 1 C165 1.66 165 2.32 165 3 C139.92 3 114.84 3 89 3 C89 2.67 89 2.34 89 2 C65.24 1.67 41.48 1.34 17 1 C17 1.66 17 2.32 17 3 C17.99 3.33 18.98 3.66 20 4 C13.4 3.67 6.8 3.34 0 3 C0 2.01 0 1.02 0 0 Z " fill="#02293D" transform="translate(67,37)"/>
<path d="M0 0 C43.23 0 86.46 0 131 0 C131 1.98 131 3.96 131 6 C123.08 6.33 115.16 6.66 107 7 C110.68577577 5.15711212 111.72122653 4.75298955 115.546875 4.8046875 C116.81337891 4.81435547 116.81337891 4.81435547 118.10546875 4.82421875 C118.97816406 4.84097656 119.85085938 4.85773438 120.75 4.875 C121.63816406 4.88402344 122.52632813 4.89304688 123.44140625 4.90234375 C125.62788058 4.92585423 127.81380094 4.95871501 130 5 C130 3.68 130 2.36 130 1 C87.43 1 44.86 1 1 1 C1 2.32 1 3.64 1 5 C9.25 5 17.5 5 26 5 C26.66 6.32 27.32 7.64 28 9 C26.72125 8.690625 25.4425 8.38125 24.125 8.0625 C16.18747712 6.44517236 8.07214961 6.33414127 0 6 C0 4.02 0 2.04 0 0 Z " fill="#97A6B0" transform="translate(282,167)"/>
<path d="M0 0 C42.24 0 84.48 0 128 0 C128 0.33 128 0.66 128 1 C71.57 1.495 71.57 1.495 14 2 C14 2.33 14 2.66 14 3 C9.38 3 4.76 3 0 3 C0 2.01 0 1.02 0 0 Z " fill="#012437" transform="translate(283,168)"/>
<path d="M0 0 C0.33 0 0.66 0 1 0 C2.30414894 17.65258746 2.09955063 35.31215037 2 53 C1.01 53 0.02 53 -1 53 C-1.39228903 48.70972794 -1.76090295 44.41774919 -2.125 40.125 C-2.23714844 38.90167969 -2.34929687 37.67835937 -2.46484375 36.41796875 C-2.56152344 35.25136719 -2.65820312 34.08476563 -2.7578125 32.8828125 C-2.89920654 31.26463623 -2.89920654 31.26463623 -3.04345703 29.61376953 C-3 27 -3 27 -1 25 C-0.73949777 23.06341366 -0.73949777 23.06341366 -0.83984375 20.859375 C-0.8562793 19.62380859 -0.8562793 19.62380859 -0.87304688 18.36328125 C-0.89431641 17.50089844 -0.91558594 16.63851562 -0.9375 15.75 C-1.0481359 10.36571939 -1.11812898 5.30461191 0 0 Z " fill="#0F3345" transform="translate(285,58)"/>
<path d="M0 0 C0.598125 0.165 1.19625 0.33 1.8125 0.5 C4.30708782 1.2438266 4.30708782 1.2438266 8 0 C8 3.3 8 6.6 8 10 C1.84765625 10.09765625 1.84765625 10.09765625 0 10 C-1 9 -1 9 -1.1328125 7.1875 C-1.13023438 6.465625 -1.12765625 5.74375 -1.125 5 C-1.12757812 4.278125 -1.13015625 3.55625 -1.1328125 2.8125 C-1 1 -1 1 0 0 Z " fill="#7B939B" transform="translate(113,363)"/>
<path d="M0 0 C3.625 0.375 3.625 0.375 7 1 C8.33157895 6.44736842 8.33157895 6.44736842 6.875 8.875 C4.40522151 10.3568671 2.83386167 10.3633156 0 10 C-2 8 -2 8 -2.25 5 C-2 2 -2 2 0 0 Z M2 3 C2 4.32 2 5.64 2 7 C2.66 7 3.32 7 4 7 C4 5.68 4 4.36 4 3 C3.34 3 2.68 3 2 3 Z " fill="#66757D" transform="translate(166,363)"/>
<path d="M0 0 C2.5625 0.375 2.5625 0.375 4.5 2.0625 C5.5625 4.375 5.5625 4.375 4.8125 7.0625 C3.5625 9.375 3.5625 9.375 2.5625 10.375 C-0.27109542 10.6732732 -1.87535378 10.73102594 -4.3125 9.1875 C-5.4375 7.375 -5.4375 7.375 -5.25 4.8125 C-4.18139434 1.60668302 -3.39220485 0.52187767 0 0 Z M-1.4375 3.375 C-1.1075 4.695 -0.7775 6.015 -0.4375 7.375 C0.2225 7.045 0.8825 6.715 1.5625 6.375 C1.5625 5.385 1.5625 4.395 1.5625 3.375 C0.5725 3.375 -0.4175 3.375 -1.4375 3.375 Z " fill="#535D64" transform="translate(97.4375,362.625)"/>
<path d="M0 0 C1.2684375 0.12375 1.2684375 0.12375 2.5625 0.25 C5.12937367 4.1003105 4.39538724 5.83569763 3.5625 10.25 C1.5825 10.25 -0.3975 10.25 -2.4375 10.25 C-4.02288318 7.73203847 -4.4748656 6.57134414 -4.125 3.5625 C-3.16230343 0.32433881 -3.16230343 0.32433881 0 0 Z " fill="#6F808A" transform="translate(46.4375,362.75)"/>
<path d="M0 0 C2.64 0 5.28 0 8 0 C8 3.3 8 6.6 8 10 C6.68 9.67 5.36 9.34 4 9 C2.68 9.33 1.36 9.66 0 10 C0 6.7 0 3.4 0 0 Z " fill="#687C85" transform="translate(303,363)"/>
<path d="M0 0 C3 -0.3125 3 -0.3125 6 0 C8 2 8 2 8.25 5 C8 8 8 8 6 10 C2.375 9.625 2.375 9.625 -1 9 C-1.625 6.1875 -1.625 6.1875 -2 3 C-1.34 2.01 -0.68 1.02 0 0 Z M2 3 C2 4.32 2 5.64 2 7 C2.99 6.67 3.98 6.34 5 6 C4.67 5.01 4.34 4.02 4 3 C3.34 3 2.68 3 2 3 Z " fill="#5F6E76" transform="translate(285,363)"/>
<path d="M0 0 C0.94875 0.04125 1.8975 0.0825 2.875 0.125 C3.535 1.445 4.195 2.765 4.875 4.125 C2.895 4.125 0.915 4.125 -1.125 4.125 C-1.125 4.785 -1.125 5.445 -1.125 6.125 C0.855 6.125 2.835 6.125 4.875 6.125 C4.215 7.445 3.555 8.765 2.875 10.125 C0 10.25 0 10.25 -3.125 10.125 C-5.125 8.125 -5.125 8.125 -5.375 5.125 C-5.02345647 0.90647769 -4.22997422 0.16919897 0 0 Z " fill="#869097" transform="translate(238.125,362.875)"/>
<path d="M0 0 C0.99 0 1.98 0 3 0 C3 0.99 3 1.98 3 3 C3.66 2.01 4.32 1.02 5 0 C5.99 0 6.98 0 8 0 C8 3.3 8 6.6 8 10 C6.68 9.67 5.36 9.34 4 9 C3.67 8.34 3.34 7.68 3 7 C3 7.99 3 8.98 3 10 C2.01 10 1.02 10 0 10 C0 6.7 0 3.4 0 0 Z " fill="#6F7E88" transform="translate(61,363)"/>
<path d="M0 0 C2.31 0 4.62 0 7 0 C7 3.3 7 6.6 7 10 C4.69 10 2.38 10 0 10 C0 6.7 0 3.4 0 0 Z " fill="#C0CCD4" transform="translate(216,363)"/>
<path d="M0 0 C3.125 -0.1875 3.125 -0.1875 6 0 C6.66 1.32 7.32 2.64 8 4 C6.02 4 4.04 4 2 4 C2 4.66 2 5.32 2 6 C3.98 6 5.96 6 8 6 C7.34 7.32 6.68 8.64 6 10 C3.69 9.67 1.38 9.34 -1 9 C-1.625 6.1875 -1.625 6.1875 -2 3 C-1.34 2.01 -0.68 1.02 0 0 Z " fill="#818B93" transform="translate(146,363)"/>
<path d="M0 0 C0.99 0 1.98 0 3 0 C6 6.625 6 6.625 6 10 C3.83125748 9.49396008 2.00032373 9.00016187 0 8 C0 8.66 0 9.32 0 10 C-1.32 10 -2.64 10 -4 10 C-3.52449439 8.51965236 -3.04448784 7.04074979 -2.5625 5.5625 C-2.29566406 4.73878906 -2.02882813 3.91507812 -1.75390625 3.06640625 C-1 1 -1 1 0 0 Z " fill="#73848D" transform="translate(27,363)"/>
<path d="M0 0 C2.31 0 4.62 0 7 0 C7 2.64 7 5.28 7 8 C6.01 7.67 5.02 7.34 4 7 C4 7.99 4 8.98 4 10 C2.68 10 1.36 10 0 10 C0 6.7 0 3.4 0 0 Z " fill="#CBD8E1" transform="translate(7,363)"/>
<path d="M0 0 C1.32 0 2.64 0 4 0 C3.67 8.58 3.34 17.16 3 26 C2.67 26 2.34 26 2 26 C1.67 22.37 1.34 18.74 1 15 C0.67 15 0.34 15 0 15 C0 10.05 0 5.1 0 0 Z " fill="#062C42" transform="translate(298,264)"/>
<path d="M0 0 C0.99 0.66 1.98 1.32 3 2 C-0.87792288 6.92908146 -4.76116833 10.5423711 -10 14 C-10.66 12.68 -11.32 11.36 -12 10 C-11.01 9.67 -10.02 9.34 -9 9 C-9 8.34 -9 7.68 -9 7 C-7.34151823 5.98648336 -5.67334039 4.98879205 -4 4 C-2.63015802 2.70420353 -1.2848951 1.38007251 0 0 Z " fill="#355465" transform="translate(350,539)"/>
<path d="M0 0 C0.33 1.32 0.66 2.64 1 4 C2.50626953 3.96519531 2.50626953 3.96519531 4.04296875 3.9296875 C12.77687041 3.79023685 21.47286436 3.821142 30 6 C32 8 32 8 32 11 C31.3090625 10.70222656 30.618125 10.40445313 29.90625 10.09765625 C20.36380636 6.49358815 10.11743794 5.48738488 0 5 C0 3.35 0 1.7 0 0 Z " fill="#8D9EA7" transform="translate(66,36)"/>
<path d="M0 0 C2.64 0 5.28 0 8 0 C8 0.99 8 1.98 8 3 C7.34 3 6.68 3 6 3 C6 5.31 6 7.62 6 10 C4.68 10 3.36 10 2 10 C2 7.69 2 5.38 2 3 C1.34 3 0.68 3 0 3 C0 2.01 0 1.02 0 0 Z " fill="#828E96" transform="translate(252,363)"/>
<path d="M0 0 C0.33 1.32 0.66 2.64 1 4 C-1.41696872 4.05411124 -3.83271787 4.09372278 -6.25 4.125 C-6.93191406 4.14175781 -7.61382812 4.15851563 -8.31640625 4.17578125 C-12.0608235 4.21213482 -14.82352727 4.07944349 -18 2 C-14.828262 0.414131 -11.36486178 0.62133555 -7.875 0.4375 C-7.12089844 0.39431641 -6.36679687 0.35113281 -5.58984375 0.30664062 C-3.72678112 0.2005168 -1.86341476 0.09974999 0 0 Z " fill="#143A4E" transform="translate(411,168)"/>
<path d="M0 0 C0.33 0 0.66 0 1 0 C1.37369729 7.47394574 0.04061541 13.82140651 -2 21 C-3.65 21.33 -5.3 21.66 -7 22 C-5.43513773 17.17500801 -3.6866916 12.43063236 -1.90234375 7.68359375 C-1.0435177 5.12942277 -0.46502713 2.65113407 0 0 Z " fill="#56707E" transform="translate(294,292)"/>
<path d="M0 0 C0.66 1.32 1.32 2.64 2 4 C0.625 6 0.625 6 -1 8 C-1.66 8 -2.32 8 -3 8 C-2.79375 8.78375 -2.5875 9.5675 -2.375 10.375 C-2.25125 11.24125 -2.1275 12.1075 -2 13 C-2.66 13.66 -3.32 14.32 -4 15 C-4.33 14.67 -4.66 14.34 -5 14 C-5 14.99 -5 15.98 -5 17 C-6.65 16.67 -8.3 16.34 -10 16 C-9.61328125 15.43152344 -9.2265625 14.86304688 -8.828125 14.27734375 C-5.68169447 9.61221532 -2.72381035 4.92381101 0 0 Z " fill="#415E6D" transform="translate(313,538)"/>
<path d="M0 0 C0.99 0 1.98 0 3 0 C3 2.31 3 4.62 3 7 C4.32 7 5.64 7 7 7 C7 7.99 7 8.98 7 10 C4.69 10 2.38 10 0 10 C0 6.7 0 3.4 0 0 Z " fill="#7A868C" transform="translate(200,363)"/>
<path d="M0 0 C0.99 0 1.98 0 3 0 C3 2.31 3 4.62 3 7 C3.99 7 4.98 7 6 7 C6 7.99 6 8.98 6 10 C4.02 10 2.04 10 0 10 C0 6.7 0 3.4 0 0 Z " fill="#6E7B82" transform="translate(184,363)"/>
<path d="M0 0 C2.31 0.33 4.62 0.66 7 1 C10.44419134 10.41002278 10.44419134 10.41002278 10 15 C7.2499398 13.6249699 7.02886668 11.72489746 5.9296875 8.98828125 C4.37868805 5.67122781 2.20198399 2.91614096 0 0 Z " fill="#5C7581" transform="translate(312,177)"/>
<path d="M0 0 C0.99 0 1.98 0 3 0 C3 3.3 3 6.6 3 10 C1.68 10 0.36 10 -1 10 C-1.33 8.35 -1.66 6.7 -2 5 C-1.34 5 -0.68 5 0 5 C0 3.35 0 1.7 0 0 Z " fill="#677881" transform="translate(118,363)"/>
<path d="M0 0 C-2.97 0.99 -5.94 1.98 -9 3 C-9 3.66 -9 4.32 -9 5 C-13.62 5 -18.24 5 -23 5 C-23 4.67 -23 4.34 -23 4 C-21.48019531 3.70996094 -21.48019531 3.70996094 -19.9296875 3.4140625 C-18.57808432 3.15125077 -17.22652408 2.88821817 -15.875 2.625 C-15.20984375 2.49867188 -14.5446875 2.37234375 -13.859375 2.2421875 C-10.68649083 1.62005335 -7.69165674 0.89340337 -4.6328125 -0.1640625 C-2 -1 -2 -1 0 0 Z " fill="#7F929C" transform="translate(272,328)"/>
<path d="M0 0 C0.99 0 1.98 0 3 0 C3 4.95 3 9.9 3 15 C2.01 15 1.02 15 0 15 C0 10.05 0 5.1 0 0 Z " fill="#042838" transform="translate(284,96)"/>
<path d="M0 0 C0.33 0.66 0.66 1.32 1 2 C1.66 2.33 2.32 2.66 3 3 C2.34 3 1.68 3 1 3 C0.67 4.32 0.34 5.64 0 7 C-3.37817425 7.84454356 -5.67465243 8.10844919 -9 7 C-8.071875 6.401875 -7.14375 5.80375 -6.1875 5.1875 C-3.79745282 3.54727155 -1.91529747 2.1281083 0 0 Z " fill="#4A6676" transform="translate(101,323)"/>
<path d="M0 0 C3 1 3 1 5 4 C5.66 3.34 6.32 2.68 7 2 C6.814375 2.61875 6.62875 3.2375 6.4375 3.875 C5.76313824 6.04160178 5.76313824 6.04160178 7 8 C4.19637237 8.22732116 2.53813483 8.34081872 0.125 6.8125 C-1 5 -1 5 -0.6875 2.3125 C-0.460625 1.549375 -0.23375 0.78625 0 0 Z " fill="#8FA1A8" transform="translate(93,365)"/>
<path d="M0 0 C1.09054687 0.02320313 2.18109375 0.04640625 3.3046875 0.0703125 C4.40039062 0.08835937 5.49609375 0.10640625 6.625 0.125 C7.46804688 0.14820313 8.31109375 0.17140625 9.1796875 0.1953125 C3.41143497 3.24607717 -2.27952987 4.52235163 -8.8203125 4.1953125 C-8.2015625 3.9065625 -7.5828125 3.6178125 -6.9453125 3.3203125 C-0.77498672 0.05366944 -0.77498672 0.05366944 0 0 Z " fill="#627A88" transform="translate(302.8203125,565.8046875)"/>
<path d="M0 0 C0.33 0.66 0.66 1.32 1 2 C3.64 2 6.28 2 9 2 C8.34 3.32 7.68 4.64 7 6 C5.00045254 6.04254356 2.99958364 6.04080783 1 6 C0 5 0 5 -0.0625 2.4375 C-0.041875 1.633125 -0.02125 0.82875 0 0 Z " fill="#788288" transform="translate(234,367)"/>
<path d="M0 0 C0.33 0.66 0.66 1.32 1 2 C3.64 2 6.28 2 9 2 C8.34 3.32 7.68 4.64 7 6 C4.69 5.67 2.38 5.34 0 5 C0 3.35 0 1.7 0 0 Z " fill="#727D84" transform="translate(145,367)"/>
<path d="M0 0 C0.99 0 1.98 0 3 0 C3 3.3 3 6.6 3 10 C2.01 10 1.02 10 0 10 C0 6.7 0 3.4 0 0 Z " fill="#6F7C83" transform="translate(79,363)"/>
<path d="M0 0 C0.99 0 1.98 0 3 0 C3 3.3 3 6.6 3 10 C2.01 10 1.02 10 0 10 C0 6.7 0 3.4 0 0 Z " fill="#727E85" transform="translate(270,363)"/>
<path d="M0 0 C2.375 -0.1875 2.375 -0.1875 5 0 C5.66 0.99 6.32 1.98 7 3 C6.67 3.66 6.34 4.32 6 5 C5.236875 4.835 4.47375 4.67 3.6875 4.5 C0.96403764 3.90854604 0.96403764 3.90854604 -2 4 C-1.34 2.68 -0.68 1.36 0 0 Z " fill="#8C9BA3" transform="translate(44,363)"/>
<path d="M0 0 C0.94875 0.04125 1.8975 0.0825 2.875 0.125 C-5.33189655 7.125 -5.33189655 7.125 -10.125 7.125 C-10.125 6.135 -10.125 5.145 -10.125 4.125 C-8.475 4.125 -6.825 4.125 -5.125 4.125 C-5.125 3.465 -5.125 2.805 -5.125 2.125 C-3.125 0.125 -3.125 0.125 0 0 Z " fill="#69818F" transform="translate(332.125,555.875)"/>
<path d="M0 0 C1.65 0 3.3 0 5 0 C4.01 0.33 3.02 0.66 2 1 C2 1.66 2 2.32 2 3 C2.99 3 3.98 3 5 3 C5 3.66 5 4.32 5 5 C4.01 5 3.02 5 2 5 C2 5.66 2 6.32 2 7 C2.99 7.33 3.98 7.66 5 8 C3.35 8 1.7 8 0 8 C0 5.36 0 2.72 0 0 Z " fill="#283C49" transform="translate(217,364)"/>
<path d="M0 0 C0.125 2.875 0.125 2.875 0 6 C-2 8 -2 8 -4.625 8.125 C-5.40875 8.08375 -6.1925 8.0425 -7 8 C-6.67 6.68 -6.34 5.36 -6 4 C-5.34 4 -4.68 4 -4 4 C-4 3.01 -4 2.02 -4 1 C-1 0 -1 0 0 0 Z " fill="#8D9BA4" transform="translate(293,365)"/>
<path d="M0 0 C1.32 0 2.64 0 4 0 C4.125 2.875 4.125 2.875 4 6 C3.34 6.66 2.68 7.32 2 8 C0 6 0 6 -0.125 2.875 C-0.08375 1.92625 -0.0425 0.9775 0 0 Z " fill="#0E3345" transform="translate(298,264)"/>
<path d="M0 0 C1.65 0 3.3 0 5 0 C4.01 0.33 3.02 0.66 2 1 C2 1.66 2 2.32 2 3 C2.99 3 3.98 3 5 3 C5 3.66 5 4.32 5 5 C4.01 5 3.02 5 2 5 C2 5.99 2 6.98 2 8 C1.34 8 0.68 8 0 8 C0 5.36 0 2.72 0 0 Z " fill="#2A3F48" transform="translate(8,364)"/>
<path d="M0 0 C2.97 0 5.94 0 9 0 C9.66 1.32 10.32 2.64 11 4 C9.35232753 3.71890887 7.70686855 3.42481474 6.0625 3.125 C4.68771484 2.88136719 4.68771484 2.88136719 3.28515625 2.6328125 C2.53105469 2.42398438 1.77695312 2.21515625 1 2 C0.67 1.34 0.34 0.68 0 0 Z " fill="#677A88" transform="translate(299,172)"/>
<path d="M0 0 C0.78375 0.04125 1.5675 0.0825 2.375 0.125 C0.99418777 4.2674367 -1.22325558 5.44703099 -4.625 8.125 C-4.75 5.25 -4.75 5.25 -4.625 2.125 C-2.625 0.125 -2.625 0.125 0 0 Z " fill="#8D9BA4" transform="translate(168.625,362.875)"/>
<path d="M0 0 C3.375 -0.125 3.375 -0.125 7 0 C9 2 9 2 9 5 C5.9168649 3.80100302 2.93720508 2.52299523 0 1 C0 0.67 0 0.34 0 0 Z " fill="#567080" transform="translate(89,42)"/>
<path d="M0 0 C0.66 1.32 1.32 2.64 2 4 C0.35 5.65 -1.3 7.3 -3 9 C-3 5.30581799 -1.71820705 3.22163822 0 0 Z " fill="#607E8B" transform="translate(313,538)"/>
<path d="M0 0 C0.33 0 0.66 0 1 0 C1.390625 5.95703125 1.390625 5.95703125 1 8 C-0.32 8.99 -1.64 9.98 -3 11 C-2.01 7.37 -1.02 3.74 0 0 Z " fill="#6D8490" transform="translate(317,527)"/>
<path d="M0 0 C1.65 0 3.3 0 5 0 C5.33 0.66 5.66 1.32 6 2 C4 4 4 4 1.375 4.125 C0.59125 4.08375 -0.1925 4.0425 -1 4 C-0.67 2.68 -0.34 1.36 0 0 Z " fill="#606F76" transform="translate(95,363)"/>
<path d="M0 0 C1.32 0 2.64 0 4 0 C2.92598892 2.91517292 2.22189824 4.77810176 0 7 C-1.125 2.25 -1.125 2.25 0 0 Z " fill="#567281" transform="translate(374,181)"/>
<path d="M0 0 C2.23551759 3.35327639 2.17283528 3.90743657 1.625 7.6875 C1.51414062 8.49574219 1.40328125 9.30398437 1.2890625 10.13671875 C1.19367188 10.75160156 1.09828125 11.36648437 1 12 C0.67 12 0.34 12 0 12 C-0.19477739 10.37585622 -0.38059458 8.75063577 -0.5625 7.125 C-0.66691406 6.22007813 -0.77132812 5.31515625 -0.87890625 4.3828125 C-1 2 -1 2 0 0 Z " fill="#072A3D" transform="translate(107,55)"/>
<path d="M0 0 C0.66 0.33 1.32 0.66 2 1 C2 2.98 2 4.96 2 7 C0.35 5.35 -1.3 3.7 -3 2 C-2.01 1.34 -1.02 0.68 0 0 Z " fill="#4A6270" transform="translate(101,46)"/>
<path d="M0 0 C0.33 0 0.66 0 1 0 C1 2.31 1 4.62 1 7 C0.67 7 0.34 7 0 7 C0 4.69 0 2.38 0 0 Z " fill="#FFFFFF" transform="translate(274,364)"/>
<path d="M0 0 C0.33 0 0.66 0 1 0 C1 1.98 1 3.96 1 6 C0.67 6 0.34 6 0 6 C0 4.02 0 2.04 0 0 Z " fill="#FFFFFF" transform="translate(122,365)"/>
<path d="M0 0 C1 4 1 4 1 4 Z " fill="#FFFFFF" transform="translate(182,366)"/>
<path d="M0 0 C1 4 1 4 1 4 Z " fill="#FFFFFF" transform="translate(70,366)"/>
<path d="M0 0 C1 4 1 4 1 4 Z " fill="#FFFFFF" transform="translate(188,365)"/>
<path d="M0 0 C3 1 3 1 3 1 Z " fill="#FFFFFF" transform="translate(202,374)"/>
<path d="" fill="#FFFFFF" transform="translate(0,0)"/>
<path d="M0 0 C2 1 2 1 2 1 Z " fill="#FFFFFF" transform="translate(186,374)"/>
<path d="" fill="#FFFFFF" transform="translate(0,0)"/>
<path d="" fill="#FFFFFF" transform="translate(0,0)"/>
<path d="" fill="#FFFFFF" transform="translate(0,0)"/>
<path d="" fill="#FFFFFF" transform="translate(0,0)"/>
<path d="" fill="#FFFFFF" transform="translate(0,0)"/>
<path d="" fill="#FFFFFF" transform="translate(0,0)"/>
<path d="" fill="#FFFFFF" transform="translate(0,0)"/>
<path d="" fill="#FFFFFF" transform="translate(0,0)"/>
<path d="" fill="#FFFFFF" transform="translate(0,0)"/>
<path d="" fill="#FFFFFF" transform="translate(0,0)"/>
<path d="" fill="#FFFFFF" transform="translate(0,0)"/>
</svg>
